<svg xmlns="http://www.w3.org/2000/svg" id="Layer_1" data-name="Layer 1" viewBox="0 0 578.04 181.34"><defs><style>.cls-1{fill:#fff}.cls-2{fill:#00ae42}</style></defs><path d="M484.66 54.74v-2.59h-29.3v-5.18h-4.44c-4.32-2.22-8.63-4.44-12.95-6.66v-4.07h-7.03v4.07c-4.32 2.22-8.63 4.44-12.95 6.66h-4.44v5.18h-19.23v-5.18h-4.44c-4.32-2.22-8.63-4.44-12.95-6.66v-4.07h-7.03v4.07c-4.32 2.22-8.63 4.44-12.95 6.66h-4.44v5.18h-17.75V0h-8.88v4.44h-1.66V0h-9.07v25.52h-6.29v10.36h-1.85V25.52h-8.88v10.36h-1.85V20.35h-14.43v15.53H280V25.52h-8.88v10.36h-1.85V25.52h-6.29V0h-9.07v4.44h-1.66V0h-8.88v52.15h-17.75v-5.18h-4.44c-4.32-2.22-8.63-4.44-12.95-6.66v-4.07h-7.03v4.07c-4.32 2.22-8.63 4.44-12.95 6.66h-4.44v5.18h-19.23v-5.18h-4.44c-4.32-2.22-8.63-4.44-12.95-6.66v-4.07h-7.03v4.07c-4.32 2.22-8.63 4.44-12.95 6.66h-4.44v5.18c-9.82-.02-19.64-.04-29.46-.05v2.6c10.56.01 21.12.03 31.68.04v-5.18h2.22c5.18-2.71 10.36-5.43 15.53-8.14v-2.59h1.85v2.59c5.18 2.71 10.36 5.43 15.53 8.14h2.22v5.18h23.67v-5.18h2.22c5.18-2.71 10.36-5.43 15.53-8.14v-2.59h1.85v2.59c5.18 2.71 10.36 5.43 15.53 8.14h2.22v5.18h22.56V2.59h3.7v4.44h6.84V2.59h3.89v25.52h6.29v10.36h7.03V28.11h3.7v10.36h7.03V22.94h9.25v15.53h7.03V28.11h3.7v10.36h7.03V28.11h6.29V2.59h3.89v4.44h6.84V2.59h3.7v52.15h22.56v-5.18h2.22c5.18-2.71 10.36-5.43 15.53-8.14v-2.59h1.85v2.59c5.18 2.71 10.36 5.43 15.53 8.14h2.22v5.18h23.67v-5.18h2.22c5.18-2.71 10.36-5.43 15.53-8.14v-2.59h1.85v2.59c5.18 2.71 10.36 5.43 15.53 8.14h2.22v5.18h31.52Z" class="cls-1"/><path d="M63.65 145.93h15.19l-.2-69.95H65.35l-25.76 43.43-26.2-43.43H0v69.95h15.19v-41.08l20.48 33.68h7.3l20.59-34.58.09 41.98zM117.41 75.98l-31.18 69.95h16.59l6.23-14.99h32.42l6.21 14.99h16.99l-31.28-69.95H117.4Zm-3.25 42.67 11.13-26.77 11.09 26.77h-22.22ZM202.24 126.44c.26 0 .5-.01.75-.02l13.43 19.5h17.49l-15.63-22.43s.09-.04.14-.06c4.53-2 8.03-4.88 10.49-8.64 2.46-3.76 3.7-8.24 3.7-13.44s-1.23-9.79-3.7-13.59c-2.47-3.8-5.96-6.71-10.49-8.74-4.53-2.03-9.93-3.05-16.19-3.05h-30.28v69.95h16.19v-19.49h14.09Zm10.29-34.07c2.46 2.13 3.7 5.13 3.7 8.99s-1.23 6.78-3.7 8.94c-2.46 2.17-6.2 3.25-11.19 3.25h-13.19V89.17h13.19c5 0 8.73 1.07 11.19 3.2ZM289.97 110.55c-2.4-1.46-5.05-2.63-7.94-3.5-2.9-.86-5.8-1.63-8.69-2.3-2.9-.67-5.55-1.33-7.94-2-2.4-.67-4.33-1.55-5.8-2.65-1.47-1.1-2.2-2.55-2.2-4.35 0-1.53.43-2.88 1.3-4.05.86-1.16 2.3-2.11 4.3-2.85 2-.73 4.56-1.1 7.69-1.1s6.33.45 9.59 1.35c3.26.9 6.53 2.28 9.79 4.15l5-12.29c-3.27-2.06-7.03-3.61-11.29-4.65a55.083 55.083 0 0 0-12.99-1.55c-6.6 0-12.08.98-16.44 2.95-4.36 1.97-7.63 4.6-9.79 7.89-2.16 3.3-3.25 6.95-3.25 10.94 0 3.73.75 6.79 2.25 9.19 1.5 2.4 3.45 4.33 5.84 5.8 2.4 1.47 5.04 2.66 7.94 3.6 2.9.93 5.8 1.72 8.69 2.35 2.9.63 5.55 1.3 7.94 2s4.33 1.6 5.8 2.7 2.2 2.58 2.2 4.45c0 1.47-.47 2.77-1.4 3.9-.93 1.13-2.38 2.02-4.35 2.65-1.97.63-4.55.95-7.74.95-4.19 0-8.34-.68-12.44-2.05-4.1-1.36-7.65-3.11-10.64-5.25l-5.5 12.19c3.13 2.4 7.26 4.35 12.39 5.85 5.13 1.5 10.49 2.25 16.09 2.25 6.66 0 12.17-1 16.54-3s7.64-4.63 9.84-7.89 3.3-6.86 3.3-10.79c0-3.66-.75-6.69-2.25-9.09-1.5-2.4-3.45-4.33-5.84-5.8ZM373.3 145.93V75.98h-16.18v27.58h-31.78V75.98h-16.19v69.95h16.19v-28.68h31.78v28.68h16.18zM403.52 130.94h32.42l6.21 14.99h16.99l-31.28-69.95h-15.99l-31.17 69.95h16.59l6.23-14.99Zm16.24-39.06 11.09 26.77h-22.22l11.13-26.77ZM517.69 132.74h-35.07V75.98h-16.19v69.95h51.26v-13.19zM542.97 132.74V75.98h-16.19v69.95h51.26v-13.19h-35.07z" class="cls-2"/><path d="M460.57 175.53h-4.29l1.89-8.96c.36-1.63.43-2.7-.71-2.7-.82 0-2.55 1.07-3.39 1.58-.05.36-.13.74-.2 1.12l-1.45 6.86h1.63l-.43 2.09h-4.31l1.89-8.96c.36-1.63.43-2.7-.69-2.7-.82 0-2.63 1.17-3.37 1.63l-1.68 7.93h1.58l-.43 2.09h-5.92l.43-2.09h1.66l1.99-9.31h-1.66l.43-2.09h4.34l-.41 1.86c1.1-.69 3.24-2.12 4.46-2.12 1.73 0 2.27.87 2.3 2.14 1.25-.79 3.42-2.14 4.69-2.14 2.78 0 2.45 2.25 1.91 4.8l-1.45 6.86h1.63l-.43 2.09ZM471.65 161.78c1.35 0 3.14.94 4.18 1.48l.25-1.22h2.68l-2.3 10.74c-.08.54.13.79.51.79.31 0 .56-.08.87-.18l.03 1.94c-.92.31-1.53.46-2.17.46-1.15 0-1.91-.41-2.04-1.56-2.12.89-4.03 1.56-5 1.56-2.81 0-2.47-2.25-1.94-4.8l.94-4.41c.54-2.55 1.17-4.8 3.98-4.8Zm-1.5 11.91c.94 0 2.88-.71 3.67-1.02l1.68-7.83c-.76-.28-2.35-.97-3.27-.97-1.15 0-1.53 1.07-1.89 2.7l-.94 4.41c-.33 1.61-.41 2.7.74 2.7ZM488.83 161.78c1.35 0 3.09 1.3 4.06 2.09l.38-1.84h2.68l-3.19 15c-.77 3.6-2.83 4.31-4.46 4.31-1.51 0-4.16-.69-6.23-1.25l.97-1.94c1.96.51 4.29 1.07 5.18 1.07 1.35 0 1.61-1.05 2.04-3.01l.41-1.91c-1.25.51-3.47 1.48-4.82 1.48-2.81 0-2.47-2.25-1.94-4.8l.94-4.41c.54-2.55 1.17-4.8 3.98-4.8Zm-1.53 12.04c.92 0 2.83-.66 3.67-.97l1.56-7.37c-.64-.54-2.19-1.61-3.11-1.61-1.15 0-1.53 1.02-1.86 2.55l-1 4.69c-.33 1.63-.41 2.7.74 2.7ZM505.57 161.78c1.35 0 3.14.94 4.18 1.48l.25-1.22h2.68l-2.3 10.74c-.08.54.13.79.51.79.31 0 .56-.08.87-.18l.03 1.94c-.92.31-1.53.46-2.17.46-1.15 0-1.91-.41-2.04-1.56-2.12.89-4.03 1.56-5 1.56-2.81 0-2.47-2.25-1.94-4.8l.94-4.41c.54-2.55 1.17-4.8 3.98-4.8Zm-1.51 11.91c.94 0 2.88-.71 3.67-1.02l1.68-7.83c-.76-.28-2.35-.97-3.27-.97-1.15 0-1.53 1.07-1.89 2.7l-.94 4.41c-.33 1.61-.41 2.7.74 2.7ZM518.86 165.63l.77-3.6h9.52l-.43 2.09-8.93 9.31h5.03l.31-1.51h2.25l-.74 3.6h-10.18l.43-2.09 9.06-9.31h-4.46l-.33 1.5h-2.27ZM537.82 175.32c-.92.31-1.56.46-2.19.46-1.53 0-2.35-.74-1.89-2.99l1.86-8.67h-1.53l.43-2.09h4.18l-2.25 10.59c-.15.64.08.94.46.94.31 0 .59-.08.87-.18l.05 1.94Zm-1.3-15.59.69-3.21h2.65l-.69 3.21h-2.65ZM548.44 175.53h-5.92l.43-2.09h1.61l1.99-9.31h-1.5l.43-2.09h4.18l-.41 1.86c1.25-.69 3.73-2.12 5.13-2.12 2.81 0 2.47 2.25 1.94 4.8l-1.28 6.05c-.15.64.05.94.46.94.28 0 .56-.08.87-.18l.03 1.94c-.92.31-1.53.46-2.19.46-1.53 0-2.35-.74-1.89-2.99l1.33-6.22c.33-1.5.43-2.7-.69-2.7-1 0-3.16 1.17-4.03 1.63l-1.68 7.93h1.63l-.43 2.09ZM572.07 174.86c-1.02.36-3.21.92-4.92.92-4.16 0-5.15-2.02-4.39-5.64l.54-2.45c1.07-5.08 2.63-5.92 7.27-5.92 3.65 0 3.9 1.81 3.44 3.93l-.08.41c-.46 2.14-2.22 4.11-8.52 4.18l-.03.13c-.38 1.76-.15 3.24 2.22 3.24 1.71 0 3.27-.38 4.36-.74l.1 1.94Zm-.61-9.08c.23-1.15.31-2.04-1.02-2.04-2.6 0-3.75.54-4.21 2.78l-.56 2.53c3.93-.33 5.38-1.38 5.77-3.16l.03-.1Z" class="cls-1"/></svg>